<svg xmlns="http://www.w3.org/2000/svg" width="1200" height="860" viewBox="0 0 1200 860">
<rect width="100%" height="100%" fill="white"/>
<text x="58" y="40" font-family="sans-serif" font-size="26" font-weight="bold">BitPangea — Boundary Candidate 128-01</text>
<text x="58" y="64" font-family="sans-serif" font-size="14">FEBCM Refinement Pass 02 · 128 vertices · mature silhouette candidate · non-canonical</text>
<polygon points="545.9,80.0 579.4,80.7 612.0,87.2 646.6,97.4 682.3,104.0 712.9,117.9 739.9,136.6 767.4,150.8 796.8,161.5 818.1,159.7 838.9,155.1 860.8,146.6 882.7,138.1 905.2,130.6 927.7,123.2 952.7,117.1 977.7,111.1 1003.2,106.1 1028.8,101.1 1049.2,102.6 1069.6,104.0 1084.0,116.6 1098.5,129.2 1107.8,148.2 1117.1,167.2 1117.9,183.5 1118.7,199.9 1108.8,210.3 1098.9,220.6 1080.5,228.4 1062.1,236.1 1038.6,241.9 1015.0,247.8 983.4,248.9 952.0,252.8 915.3,254.4 878.7,254.0 848.4,256.7 818.6,262.2 795.9,274.1 772.2,284.4 754.5,297.9 739.0,313.5 741.7,326.1 742.3,338.9 774.4,348.4 807.3,355.1 858.2,360.3 908.8,367.5 950.7,376.2 993.2,382.1 1016.5,391.4 1039.9,400.7 1056.1,409.6 1069.6,421.5 1084.7,429.9 1091.4,444.4 1101.4,463.7 1117.0,480.0 1120.0,502.9 1118.7,525.9 1105.8,563.8 1082.9,597.8 1051.7,632.1 1025.9,669.7 992.7,695.2 956.7,717.7 923.0,738.7 884.1,751.2 851.3,760.3 821.0,774.6 792.6,777.3 764.1,780.0 747.7,773.7 731.4,767.4 716.5,756.0 701.7,744.7 687.7,730.2 671.4,717.7 654.7,699.3 639.8,679.8 625.1,658.0 607.7,637.8 589.8,628.2 573.2,617.0 542.7,634.4 514.2,654.1 484.5,681.8 453.2,708.1 424.8,719.1 397.9,732.7 367.9,735.3 338.6,741.6 299.2,737.6 259.9,733.6 222.9,720.8 185.9,708.1 158.3,686.5 135.4,661.0 124.5,631.1 109.5,602.6 120.2,571.4 131.0,540.3 142.1,509.1 153.1,477.9 135.6,451.3 118.0,424.6 100.1,398.5 82.2,372.5 80.0,343.0 90.8,314.9 109.6,287.7 120.4,257.4 139.4,227.5 163.0,200.2 186.2,171.9 218.6,151.9 255.7,141.6 289.2,124.3 324.8,116.6 360.4,108.8 387.8,102.8 416.0,102.5 440.2,102.7 464.1,99.2 482.5,90.6 502.9,87.5 524.8,85.6" fill="#f6f6f6" stroke="black" stroke-width="2.4"/><circle cx="545.9" cy="80.0" r="2.8" fill="black"/><circle cx="579.4" cy="80.7" r="1.6" fill="white" stroke="black" stroke-width="0.6"/><circle cx="612.0" cy="87.2" r="2.8" fill="black"/><circle cx="646.6" cy="97.4" r="1.6" fill="white" stroke="black" stroke-width="0.6"/><circle cx="682.3" cy="104.0" r="2.8" fill="black"/><circle cx="712.9" cy="117.9" r="1.6" fill="white" stroke="black" stroke-width="0.6"/><circle cx="739.9" cy="136.6" r="2.8" fill="black"/><circle cx="767.4" cy="150.8" r="1.6" fill="white" stroke="black" stroke-width="0.6"/><circle cx="796.8" cy="161.5" r="2.8" fill="black"/><circle cx="818.1" cy="159.7" r="1.6" fill="white" stroke="black" stroke-width="0.6"/><circle cx="838.9" cy="155.1" r="2.8" fill="black"/><circle cx="860.8" cy="146.6" r="1.6" fill="white" stroke="black" stroke-width="0.6"/><circle cx="882.7" cy="138.1" r="2.8" fill="black"/><circle cx="905.2" cy="130.6" r="1.6" fill="white" stroke="black" stroke-width="0.6"/><circle cx="927.7" cy="123.2" r="2.8" fill="black"/><circle cx="952.7" cy="117.1" r="1.6" fill="white" stroke="black" stroke-width="0.6"/><circle cx="977.7" cy="111.1" r="2.8" fill="black"/><circle cx="1003.2" cy="106.1" r="1.6" fill="white" stroke="black" stroke-width="0.6"/><circle cx="1028.8" cy="101.1" r="2.8" fill="black"/><circle cx="1049.2" cy="102.6" r="1.6" fill="white" stroke="black" stroke-width="0.6"/><circle cx="1069.6" cy="104.0" r="2.8" fill="black"/><circle cx="1084.0" cy="116.6" r="1.6" fill="white" stroke="black" stroke-width="0.6"/><circle cx="1098.5" cy="129.2" r="2.8" fill="black"/><circle cx="1107.8" cy="148.2" r="1.6" fill="white" stroke="black" stroke-width="0.6"/><circle cx="1117.1" cy="167.2" r="2.8" fill="black"/><circle cx="1117.9" cy="183.5" r="1.6" fill="white" stroke="black" stroke-width="0.6"/><circle cx="1118.7" cy="199.9" r="2.8" fill="black"/><circle cx="1108.8" cy="210.3" r="1.6" fill="white" stroke="black" stroke-width="0.6"/><circle cx="1098.9" cy="220.6" r="2.8" fill="black"/><circle cx="1080.5" cy="228.4" r="1.6" fill="white" stroke="black" stroke-width="0.6"/><circle cx="1062.1" cy="236.1" r="2.8" fill="black"/><circle cx="1038.6" cy="241.9" r="1.6" fill="white" stroke="black" stroke-width="0.6"/><circle cx="1015.0" cy="247.8" r="2.8" fill="black"/><circle cx="983.4" cy="248.9" r="1.6" fill="white" stroke="black" stroke-width="0.6"/><circle cx="952.0" cy="252.8" r="2.8" fill="black"/><circle cx="915.3" cy="254.4" r="1.6" fill="white" stroke="black" stroke-width="0.6"/><circle cx="878.7" cy="254.0" r="2.8" fill="black"/><circle cx="848.4" cy="256.7" r="1.6" fill="white" stroke="black" stroke-width="0.6"/><circle cx="818.6" cy="262.2" r="2.8" fill="black"/><circle cx="795.9" cy="274.1" r="1.6" fill="white" stroke="black" stroke-width="0.6"/><circle cx="772.2" cy="284.4" r="2.8" fill="black"/><circle cx="754.5" cy="297.9" r="1.6" fill="white" stroke="black" stroke-width="0.6"/><circle cx="739.0" cy="313.5" r="2.8" fill="black"/><circle cx="741.7" cy="326.1" r="1.6" fill="white" stroke="black" stroke-width="0.6"/><circle cx="742.3" cy="338.9" r="2.8" fill="black"/><circle cx="774.4" cy="348.4" r="1.6" fill="white" stroke="black" stroke-width="0.6"/><circle cx="807.3" cy="355.1" r="2.8" fill="black"/><circle cx="858.2" cy="360.3" r="1.6" fill="white" stroke="black" stroke-width="0.6"/><circle cx="908.8" cy="367.5" r="2.8" fill="black"/><circle cx="950.7" cy="376.2" r="1.6" fill="white" stroke="black" stroke-width="0.6"/><circle cx="993.2" cy="382.1" r="2.8" fill="black"/><circle cx="1016.5" cy="391.4" r="1.6" fill="white" stroke="black" stroke-width="0.6"/><circle cx="1039.9" cy="400.7" r="2.8" fill="black"/><circle cx="1056.1" cy="409.6" r="1.6" fill="white" stroke="black" stroke-width="0.6"/><circle cx="1069.6" cy="421.5" r="2.8" fill="black"/><circle cx="1084.7" cy="429.9" r="1.6" fill="white" stroke="black" stroke-width="0.6"/><circle cx="1091.4" cy="444.4" r="2.8" fill="black"/><circle cx="1101.4" cy="463.7" r="1.6" fill="white" stroke="black" stroke-width="0.6"/><circle cx="1117.0" cy="480.0" r="2.8" fill="black"/><circle cx="1120.0" cy="502.9" r="1.6" fill="white" stroke="black" stroke-width="0.6"/><circle cx="1118.7" cy="525.9" r="2.8" fill="black"/><circle cx="1105.8" cy="563.8" r="1.6" fill="white" stroke="black" stroke-width="0.6"/><circle cx="1082.9" cy="597.8" r="2.8" fill="black"/><circle cx="1051.7" cy="632.1" r="1.6" fill="white" stroke="black" stroke-width="0.6"/><circle cx="1025.9" cy="669.7" r="2.8" fill="black"/><circle cx="992.7" cy="695.2" r="1.6" fill="white" stroke="black" stroke-width="0.6"/><circle cx="956.7" cy="717.7" r="2.8" fill="black"/><circle cx="923.0" cy="738.7" r="1.6" fill="white" stroke="black" stroke-width="0.6"/><circle cx="884.1" cy="751.2" r="2.8" fill="black"/><circle cx="851.3" cy="760.3" r="1.6" fill="white" stroke="black" stroke-width="0.6"/><circle cx="821.0" cy="774.6" r="2.8" fill="black"/><circle cx="792.6" cy="777.3" r="1.6" fill="white" stroke="black" stroke-width="0.6"/><circle cx="764.1" cy="780.0" r="2.8" fill="black"/><circle cx="747.7" cy="773.7" r="1.6" fill="white" stroke="black" stroke-width="0.6"/><circle cx="731.4" cy="767.4" r="2.8" fill="black"/><circle cx="716.5" cy="756.0" r="1.6" fill="white" stroke="black" stroke-width="0.6"/><circle cx="701.7" cy="744.7" r="2.8" fill="black"/><circle cx="687.7" cy="730.2" r="1.6" fill="white" stroke="black" stroke-width="0.6"/><circle cx="671.4" cy="717.7" r="2.8" fill="black"/><circle cx="654.7" cy="699.3" r="1.6" fill="white" stroke="black" stroke-width="0.6"/><circle cx="639.8" cy="679.8" r="2.8" fill="black"/><circle cx="625.1" cy="658.0" r="1.6" fill="white" stroke="black" stroke-width="0.6"/><circle cx="607.7" cy="637.8" r="2.8" fill="black"/><circle cx="589.8" cy="628.2" r="1.6" fill="white" stroke="black" stroke-width="0.6"/><circle cx="573.2" cy="617.0" r="2.8" fill="black"/><circle cx="542.7" cy="634.4" r="1.6" fill="white" stroke="black" stroke-width="0.6"/><circle cx="514.2" cy="654.1" r="2.8" fill="black"/><circle cx="484.5" cy="681.8" r="1.6" fill="white" stroke="black" stroke-width="0.6"/><circle cx="453.2" cy="708.1" r="2.8" fill="black"/><circle cx="424.8" cy="719.1" r="1.6" fill="white" stroke="black" stroke-width="0.6"/><circle cx="397.9" cy="732.7" r="2.8" fill="black"/><circle cx="367.9" cy="735.3" r="1.6" fill="white" stroke="black" stroke-width="0.6"/><circle cx="338.6" cy="741.6" r="2.8" fill="black"/><circle cx="299.2" cy="737.6" r="1.6" fill="white" stroke="black" stroke-width="0.6"/><circle cx="259.9" cy="733.6" r="2.8" fill="black"/><circle cx="222.9" cy="720.8" r="1.6" fill="white" stroke="black" stroke-width="0.6"/><circle cx="185.9" cy="708.1" r="2.8" fill="black"/><circle cx="158.3" cy="686.5" r="1.6" fill="white" stroke="black" stroke-width="0.6"/><circle cx="135.4" cy="661.0" r="2.8" fill="black"/><circle cx="124.5" cy="631.1" r="1.6" fill="white" stroke="black" stroke-width="0.6"/><circle cx="109.5" cy="602.6" r="2.8" fill="black"/><circle cx="120.2" cy="571.4" r="1.6" fill="white" stroke="black" stroke-width="0.6"/><circle cx="131.0" cy="540.3" r="2.8" fill="black"/><circle cx="142.1" cy="509.1" r="1.6" fill="white" stroke="black" stroke-width="0.6"/><circle cx="153.1" cy="477.9" r="2.8" fill="black"/><circle cx="135.6" cy="451.3" r="1.6" fill="white" stroke="black" stroke-width="0.6"/><circle cx="118.0" cy="424.6" r="2.8" fill="black"/><circle cx="100.1" cy="398.5" r="1.6" fill="white" stroke="black" stroke-width="0.6"/><circle cx="82.2" cy="372.5" r="2.8" fill="black"/><circle cx="80.0" cy="343.0" r="1.6" fill="white" stroke="black" stroke-width="0.6"/><circle cx="90.8" cy="314.9" r="2.8" fill="black"/><circle cx="109.6" cy="287.7" r="1.6" fill="white" stroke="black" stroke-width="0.6"/><circle cx="120.4" cy="257.4" r="2.8" fill="black"/><circle cx="139.4" cy="227.5" r="1.6" fill="white" stroke="black" stroke-width="0.6"/><circle cx="163.0" cy="200.2" r="2.8" fill="black"/><circle cx="186.2" cy="171.9" r="1.6" fill="white" stroke="black" stroke-width="0.6"/><circle cx="218.6" cy="151.9" r="2.8" fill="black"/><circle cx="255.7" cy="141.6" r="1.6" fill="white" stroke="black" stroke-width="0.6"/><circle cx="289.2" cy="124.3" r="2.8" fill="black"/><circle cx="324.8" cy="116.6" r="1.6" fill="white" stroke="black" stroke-width="0.6"/><circle cx="360.4" cy="108.8" r="2.8" fill="black"/><circle cx="387.8" cy="102.8" r="1.6" fill="white" stroke="black" stroke-width="0.6"/><circle cx="416.0" cy="102.5" r="2.8" fill="black"/><circle cx="440.2" cy="102.7" r="1.6" fill="white" stroke="black" stroke-width="0.6"/><circle cx="464.1" cy="99.2" r="2.8" fill="black"/><circle cx="482.5" cy="90.6" r="1.6" fill="white" stroke="black" stroke-width="0.6"/><circle cx="502.9" cy="87.5" r="2.8" fill="black"/><circle cx="524.8" cy="85.6" r="1.6" fill="white" stroke="black" stroke-width="0.6"/>
</svg>
